<svg width="100" height="101" viewBox="0 0 100 101" fill="none" xmlns="http://www.w3.org/2000/svg">
<g clip-path="url(#clip0_94_46)">
<path d="M91.3496 11.8911H75.9962V15.8364H91.2337C93.5718 16.0948 95.7038 18.0261 95.7038 20.2315V72.3215H90.5101V22.5849C90.5101 21.496 89.5483 20.6122 88.3631 20.6122H75.9941V24.5575H86.2161V72.3215H69.553H59.5886H13.7818V24.5575H24.0038V20.6122H11.6347C10.4496 20.6122 9.48772 21.496 9.48772 22.5849V72.3215H4.29406V20.2315C4.29406 18.0044 6.28221 16.0455 8.74055 15.8364H24.0038V11.8911H8.65038C8.59455 11.8911 8.54088 11.8931 8.48506 11.897C3.72724 12.2324 0 15.8936 0 20.2315V77.8035C0 82.1867 3.87968 85.7513 8.65038 85.7513H37.3669L34.6745 97.0546H28.1991C27.0139 97.0546 26.052 97.9384 26.052 99.0273C26.052 100.116 27.0139 101 28.1991 101H70.9529C72.138 101 73.0999 100.116 73.0999 99.0273C73.0999 97.9384 72.138 97.0546 70.9529 97.0546H64.5053L62.0276 85.7533H91.3496C96.1203 85.7533 100 82.1887 100 77.8055V20.2315C100 16.1619 95.9786 11.8911 91.3496 11.8911ZM39.0716 97.0546L41.764 85.7533H57.6499L60.1254 97.0546H39.0716ZM95.7059 77.8035C95.7059 80.0109 93.7521 81.806 91.3496 81.806H8.65038C6.24785 81.806 4.29406 80.0109 4.29406 77.8035V76.2668H59.5908H69.5551H95.7059V77.8035Z" fill="#F5F6FA" fill-opacity="0.72"/>
<path d="M74.5364 0H40.098C39.5441 0 38.9944 0.205156 38.5994 0.560234L24.6909 11.8912V24.5576V61.8467C24.6909 62.9356 25.6528 63.8194 26.8379 63.8194H74.5385C75.7237 63.8194 76.6855 62.9356 76.6855 61.8467V24.5576V11.8912V1.97266C76.6834 0.88375 75.7237 0 74.5364 0ZM37.9531 6.65377V11.8912H32.1111L37.9531 6.65377ZM72.3893 59.8741H28.985V15.8365H40.1002C41.2853 15.8365 42.2472 14.9527 42.2472 13.8638V3.94531H72.3915L72.3893 59.8741Z" fill="white"/>
<path d="M59.1205 45.438H42.2535C41.0683 45.438 40.1064 46.3217 40.1064 47.4106C40.1064 48.4996 41.0683 49.3833 42.2535 49.3833H59.1205C60.3057 49.3833 61.2676 48.4996 61.2676 47.4106C61.2676 46.3217 60.3057 45.438 59.1205 45.438Z" fill="white"/>
<path d="M41.2142 30.0161C42.0408 30.7972 43.3998 30.813 44.2501 30.0535L48.5398 26.2167V39.7215C48.5398 40.8104 49.5017 41.6942 50.6869 41.6942C51.872 41.6942 52.8339 40.8104 52.8339 39.7215V26.2167L57.1237 30.0535C57.5402 30.4264 58.0812 30.6118 58.6223 30.6118C59.1805 30.6118 59.7409 30.4126 60.1617 30.0161C60.9883 29.2349 60.9711 27.9862 60.1209 27.2267L52.1855 20.1291C51.6852 19.6813 50.9552 19.4841 50.2703 19.6083C49.8667 19.6813 49.4845 19.8667 49.1882 20.1291L41.2528 27.2267C40.4047 27.9882 40.3854 29.2369 41.2142 30.0161Z" fill="white"/>
</g>
<defs>
<clipPath id="clip0_94_46">
<rect width="100" height="101" fill="white"/>
</clipPath>
</defs>
</svg>
