<svg width="1010" height="212" viewBox="0 0 1010 212" fill="none" xmlns="http://www.w3.org/2000/svg">
<rect x="249.792" y="119" width="108.728" height="93.0005" fill="white"/>
<rect x="379.427" y="0.54834" width="106.923" height="94.6813" fill="white"/>
<path d="M464.037 28.3486C464.058 28.4261 464.07 28.5127 464.07 28.5883V41.2549C464.07 41.4166 464.024 41.5754 463.934 41.7153C463.845 41.8553 463.717 41.9712 463.562 42.0514L451.85 48.1782V60.3064C451.85 60.468 451.804 60.6269 451.714 60.7668C451.625 60.9067 451.497 61.0227 451.342 61.1029L426.894 73.8745C426.837 73.9032 426.776 73.9255 426.713 73.9409L426.65 73.9704C426.48 74.0091 426.302 74.0091 426.132 73.9704C426.107 73.9634 426.082 73.9535 426.059 73.9409C426 73.9244 425.944 73.9021 425.891 73.8745L401.453 61.1029C401.297 61.023 401.167 60.9074 401.076 60.7676C400.985 60.6277 400.936 60.4687 400.935 60.3064V22.3085C400.935 22.2311 400.955 22.1444 400.977 22.0688C400.987 22.0393 400.998 22.0209 401.01 21.9914L401.073 21.8476C401.083 21.8181 401.115 21.7996 401.136 21.7701L401.231 21.654C401.265 21.6348 401.297 21.6126 401.327 21.5876C401.369 21.5581 401.4 21.5305 401.442 21.5102L413.662 15.1234C413.817 15.0429 413.992 15.0005 414.17 15.0005C414.348 15.0005 414.523 15.0429 414.678 15.1234L426.908 21.5102C426.951 21.5286 426.981 21.5581 427.014 21.5876L427.119 21.654C427.151 21.691 427.179 21.7298 427.205 21.7701C427.225 21.7886 427.258 21.8181 427.278 21.8476L427.341 21.9914C427.351 22.0209 427.373 22.0393 427.373 22.0688C427.404 22.1456 427.419 22.2269 427.416 22.3085V46.0376L437.593 40.7184V28.5902C437.596 28.4812 437.622 28.3738 437.668 28.2731L437.731 28.1292C437.751 28.0905 437.783 28.0721 437.804 28.0426C437.836 28.0039 437.857 27.9651 437.889 27.9375C437.922 27.9098 437.962 27.8896 437.995 27.8711C438.025 27.8404 438.061 27.8143 438.1 27.7937L450.331 21.4069C450.483 21.3218 450.659 21.2768 450.838 21.2768C451.018 21.2768 451.193 21.3218 451.346 21.4069L463.566 27.7937C463.609 27.8121 463.639 27.8416 463.682 27.8711C463.714 27.8896 463.745 27.9098 463.777 27.9375C463.81 27.9651 463.84 28.0039 463.873 28.0426C463.893 28.0721 463.926 28.0905 463.936 28.1292C463.968 28.1772 463.978 28.2251 463.999 28.2731C464.019 28.2915 464.031 28.321 464.041 28.3505L464.037 28.3486ZM462.026 40.7165V30.1924L457.753 32.4196L451.85 35.5116V46.0357L462.026 40.7165ZM449.819 59.768V49.2328L443.999 52.2381L427.41 60.8429V71.474L449.819 59.768ZM402.962 23.9107V59.768L425.368 71.474V60.8429L413.656 54.8212C413.614 54.8028 413.583 54.7733 413.551 54.7438C413.518 54.7253 413.478 54.7051 413.455 54.6774H413.445C413.413 54.6479 413.392 54.611 413.36 54.5815C413.339 54.552 413.307 54.5244 413.287 54.4856C413.263 54.4494 413.245 54.4103 413.234 54.3695C413.213 54.3308 413.191 54.3031 413.181 54.2644C413.171 54.2257 413.161 54.1777 413.161 54.1298C413.151 54.0911 413.14 54.0634 413.14 54.0247V29.23L407.238 26.138L402.962 23.9107ZM414.166 16.9875L403.99 22.3067L414.166 27.6259L424.343 22.3067L414.166 16.9875ZM419.466 50.1952L425.368 47.1033V23.9126L421.095 26.1398L415.182 29.2318V52.4225L419.466 50.1952ZM450.834 23.2673L440.646 28.5865L450.834 33.9057L461.011 28.5865L450.834 23.2673ZM449.819 35.5116L439.63 30.1924V40.7165L445.533 43.8085L449.817 46.0357L449.819 35.5116ZM426.386 59.2407L448.783 47.6398L438.616 42.3206L416.23 54.0173L426.386 59.2407Z" fill="#777777"/>
<rect y="0.54834" width="102.863" height="94.6813" fill="#E5E5E5"/>
<path d="M50.1366 69.2146C49.9095 69.2146 49.6975 69.1523 49.5005 69.0432L47.4863 67.8122C47.1834 67.6407 47.3348 67.5784 47.4258 67.5473C47.8346 67.4071 47.9104 67.3758 48.3344 67.1266C48.3799 67.0953 48.4405 67.111 48.4859 67.1421L50.0307 68.0927C50.0912 68.1238 50.167 68.1238 50.2123 68.0927L56.2551 64.493C56.3156 64.4618 56.346 64.3994 56.346 64.3216V57.1378C56.346 57.0598 56.3156 56.9976 56.2551 56.9663L50.2123 53.3823C50.1518 53.351 50.076 53.351 50.0307 53.3823L43.9879 56.9663C43.9273 56.9975 43.8969 57.0754 43.8969 57.1377V64.3215C43.8969 64.3839 43.9273 64.4617 43.9879 64.493L45.6387 65.4747C46.5322 65.9421 47.0926 65.3967 47.0926 64.8513V57.761C47.0926 57.6676 47.1683 57.574 47.2743 57.574H48.0466C48.1376 57.574 48.2284 57.6519 48.2284 57.761V64.8513C48.2284 66.0824 47.5771 66.7992 46.4413 66.7992C46.093 66.7992 45.8204 66.7992 45.048 66.4096L43.4578 65.4747C43.0641 65.241 42.8218 64.8046 42.8218 64.3371V57.1533C42.8218 56.6859 43.0641 56.2494 43.4578 56.0158L49.5005 52.4161C49.8792 52.1979 50.3942 52.1979 50.7727 52.4161L56.8154 56.0158C57.2092 56.2494 57.4516 56.6859 57.4516 57.1533V64.3371C57.4516 64.8046 57.2092 65.241 56.8154 65.4747L50.7727 69.0744C50.5758 69.1679 50.3487 69.2146 50.1367 69.2146H50.1366ZM51.9994 64.2748C49.3492 64.2748 48.8039 63.0282 48.8039 61.9685C48.8039 61.875 48.8796 61.7815 48.9857 61.7815H49.7732C49.864 61.7815 49.9397 61.8438 49.9397 61.9374C50.061 62.7632 50.4092 63.1684 52.0146 63.1684C53.2867 63.1684 53.8321 62.8723 53.8321 62.1711C53.8321 61.7659 53.6805 61.4699 51.6966 61.2673C50.0458 61.0958 49.0159 60.7219 49.0159 59.3662C49.0159 58.1039 50.0459 57.3558 51.7723 57.3558C53.7107 57.3558 54.665 58.0416 54.7862 59.5374C54.7862 59.5843 54.771 59.631 54.7407 59.6778C54.7103 59.7089 54.665 59.7401 54.6195 59.7401H53.832C53.7562 59.7401 53.6805 59.6778 53.6654 59.5998C53.4837 58.7428 53.0141 58.4623 51.7723 58.4623C50.379 58.4623 50.2123 58.961 50.2123 59.3349C50.2123 59.7868 50.4092 59.9271 52.2871 60.1764C54.15 60.4258 55.0285 60.7842 55.0285 62.1243C55.0133 63.4956 53.9229 64.2748 51.9994 64.2748Z" fill="black"/>
<path d="M31.3875 41.1187C31.3875 40.8382 31.236 40.5731 30.9937 40.4329L24.5724 36.6307C24.4662 36.5683 24.3452 36.5371 24.2241 36.5215H24.1634C24.0423 36.5215 23.9211 36.5683 23.8151 36.6307L17.3938 40.4329C17.1513 40.5731 17 40.8381 17 41.1187L17.0152 51.3411C17.0152 51.4813 17.0909 51.6216 17.212 51.684C17.3332 51.7619 17.4846 51.7619 17.5907 51.684L21.4072 49.44C21.6495 49.2998 21.8009 49.0348 21.8009 48.7544V43.9703C21.8009 43.6899 21.9523 43.4249 22.1947 43.2847L23.8151 42.3185C23.9363 42.2406 24.0726 42.2093 24.2089 42.2093C24.3452 42.2093 24.4814 42.2406 24.5876 42.3185L26.208 43.2847C26.4504 43.4249 26.6018 43.6897 26.6018 43.9703V48.7544C26.6018 49.0348 26.7532 49.2998 26.9955 49.44L30.812 51.684C30.9332 51.7619 31.0846 51.7619 31.2058 51.684C31.327 51.6216 31.4027 51.4813 31.4027 51.3411L31.3875 41.1187Z" fill="#333333"/>
<path d="M62.2525 27.0468C62.1314 26.9844 61.9799 26.9844 61.8738 27.0468C61.7527 27.1248 61.677 27.2493 61.677 27.3896V37.5187C61.677 37.6122 61.6316 37.7056 61.5407 37.768C61.4499 37.8147 61.3589 37.8147 61.2681 37.768L59.6628 36.8175C59.5451 36.7485 59.412 36.7123 59.2766 36.7123C59.1411 36.7123 59.008 36.7485 58.8903 36.8175L52.469 40.6354C52.2267 40.7756 52.0752 41.0405 52.0752 41.321V48.9411C52.0752 49.2215 52.2267 49.4866 52.469 49.6268L58.8903 53.4447C59.008 53.5137 59.1411 53.5499 59.2766 53.5499C59.412 53.5499 59.5451 53.5137 59.6628 53.4447L66.0841 49.6268C66.3264 49.4866 66.4779 49.2217 66.4779 48.9411V29.9453C66.4779 29.6492 66.3264 29.3844 66.0841 29.244L62.2526 27.0468H62.2525ZM61.6619 46.4323C61.6619 46.5102 61.6316 46.5725 61.5709 46.6037L59.375 47.9126C59.3444 47.928 59.3107 47.936 59.2766 47.936C59.2424 47.936 59.2087 47.928 59.1781 47.9126L56.9822 46.6037C56.9215 46.5725 56.8912 46.4946 56.8912 46.4323V43.8143C56.8912 43.7363 56.9215 43.6741 56.9822 43.6429L59.1781 42.3338C59.2087 42.3184 59.2424 42.3104 59.2766 42.3104C59.3107 42.3104 59.3444 42.3184 59.375 42.3338L61.5709 43.6429C61.6316 43.6739 61.6619 43.752 61.6619 43.8143V46.4323Z" fill="#333333"/>
<path d="M83.6215 43.7522C83.864 43.612 84.0002 43.347 84.0002 43.0665V41.2121C84.0002 40.9317 83.8488 40.6667 83.6215 40.5265L77.2457 36.7243C77.128 36.6554 76.9949 36.6191 76.8595 36.6191C76.7241 36.6191 76.591 36.6554 76.4733 36.7243L70.052 40.542C69.8095 40.6823 69.6582 40.9472 69.6582 41.2278V48.8478C69.6582 49.1283 69.8095 49.3932 70.052 49.5335L76.4279 53.2734C76.6703 53.4136 76.9579 53.4136 77.1851 53.2734L81.0469 51.0608C81.1681 50.9984 81.2439 50.8582 81.2439 50.7179C81.2439 50.5777 81.1681 50.4375 81.0469 50.3751L74.5953 46.5572C74.4742 46.4794 74.3985 46.3547 74.3985 46.2145V43.8303C74.3985 43.69 74.4742 43.5498 74.5953 43.4874L76.6096 42.303C76.6686 42.2649 76.7368 42.2446 76.8065 42.2446C76.8762 42.2446 76.9444 42.2649 77.0034 42.303L79.0175 43.4874C79.1388 43.5653 79.2145 43.6899 79.2145 43.8303V45.7002C79.2145 45.8405 79.2902 45.9807 79.4113 46.043C79.5325 46.1209 79.6839 46.1209 79.8051 46.043L83.6215 43.7522Z" fill="#333333"/>
<path d="M76.761 43.3935C76.7835 43.3782 76.8098 43.3701 76.8367 43.3701C76.8636 43.3701 76.8899 43.3782 76.9123 43.3935L78.1391 44.1259C78.1846 44.1569 78.2148 44.2037 78.2148 44.2661V45.731C78.2148 45.7933 78.1846 45.84 78.1391 45.8712L76.9123 46.6036C76.8899 46.6188 76.8636 46.627 76.8367 46.627C76.8098 46.627 76.7835 46.6188 76.761 46.6036L75.5342 45.8712C75.4888 45.84 75.4585 45.7933 75.4585 45.731V44.2661C75.4585 44.2037 75.4888 44.1569 75.5342 44.1259L76.761 43.3935Z" fill="black"/>
<mask id="mask0_284_123" style="mask-type:alpha" maskUnits="userSpaceOnUse" x="34" y="36" width="15" height="18">
<path d="M42.1256 36.7551C42.0079 36.6861 41.8748 36.6499 41.7394 36.6499C41.604 36.6499 41.4709 36.6861 41.3532 36.7551L34.9773 40.5415C34.7349 40.6818 34.5986 40.9467 34.5986 41.2272V48.8163C34.5986 49.0967 34.7501 49.3617 34.9773 49.5019L41.3532 53.2886C41.4709 53.3576 41.604 53.3938 41.7394 53.3938C41.8748 53.3938 42.0079 53.3576 42.1256 53.2886L48.5016 49.5019C48.7439 49.3617 48.8803 49.0967 48.8803 48.8163V41.2273C48.8803 40.9468 48.7287 40.6819 48.5016 40.5417L42.1256 36.7551Z" fill="white"/>
</mask>
<g mask="url(#mask0_284_123)">
<path d="M42.1256 36.7551C42.0079 36.6861 41.8748 36.6499 41.7394 36.6499C41.604 36.6499 41.4709 36.6861 41.3532 36.7551L34.9773 40.5415C34.7349 40.6817 34.5986 40.9467 34.5986 41.2271V48.8162C34.5986 49.0966 34.7501 49.3616 34.9773 49.5018L41.3532 53.2885C41.4709 53.3574 41.604 53.3937 41.7394 53.3937C41.8748 53.3937 42.0079 53.3574 42.1256 53.2885L48.5016 49.5018C48.7439 49.3616 48.8803 49.0966 48.8803 48.8162V41.2273C48.8803 40.9468 48.7287 40.6819 48.5016 40.5416L42.1256 36.7551Z" fill="black"/>
<path d="M48.5171 40.5423L42.1109 36.7557C42.048 36.723 41.982 36.6969 41.914 36.6777L34.7354 49.3314C34.7948 49.4061 34.8666 49.4694 34.9475 49.5184L41.3537 53.3052C41.5354 53.4142 41.7474 53.4454 41.9442 53.383L48.6837 40.6983C48.6383 40.636 48.5776 40.5891 48.5171 40.5424V40.5423Z" fill="#C4C4C4"/>
<path fill-rule="evenodd" clip-rule="evenodd" d="M48.5312 49.5021C48.713 49.3931 48.8492 49.2061 48.9099 49.0035L41.8825 36.6616C41.7008 36.6305 41.5038 36.646 41.3374 36.7551L34.9766 40.5263L41.837 53.3979C41.9368 53.3811 42.0337 53.3497 42.1248 53.3045L48.5311 49.5023L48.5312 49.5021Z" fill="#C4C4C4"/>
<path fill-rule="evenodd" clip-rule="evenodd" d="M48.5319 49.5025L42.1408 53.2891C42.0506 53.3364 41.9533 53.368 41.853 53.3825L41.9742 53.6163L49.0619 49.3936V49.3L48.8802 48.9883C48.8499 49.2064 48.7136 49.3934 48.5319 49.5025Z" fill="black"/>
<path fill-rule="evenodd" clip-rule="evenodd" d="M48.5319 49.5025L42.1408 53.2891C42.0506 53.3364 41.9533 53.368 41.853 53.3825L41.9742 53.6163L49.0619 49.3936V49.3L48.8802 48.9883C48.8499 49.2064 48.7136 49.3934 48.5319 49.5025Z" fill="black"/>
</g>
<rect x="249.792" y="0.54834" width="108.728" height="94.6813" fill="#E5E5E5"/>
<path fill-rule="evenodd" clip-rule="evenodd" d="M280 18H332V77H280V18ZM319.752 67.4617C317.34 67.4617 315.978 66.0358 314.931 64.0938L310.959 66.7119C312.394 69.9274 315.325 72.3808 319.865 72.3808C324.506 72.3808 327.961 69.6471 327.961 64.6543C327.961 60.0252 325.617 57.9676 321.466 55.9444L320.244 55.3519C318.146 54.3194 317.239 53.6483 317.239 51.984C317.239 50.6393 318.149 49.6092 319.579 49.6092C320.98 49.6092 321.884 50.2804 322.722 51.984L326.527 49.2135C324.917 46.0004 322.686 44.7737 319.579 44.7737C315.215 44.7737 312.422 47.94 312.422 52.0995C312.422 56.6106 314.762 58.7469 318.289 60.4505L319.511 61.0454C321.741 62.1517 323.069 62.8252 323.069 64.7255C323.069 66.3136 321.776 67.4617 319.752 67.4617ZM300.815 67.4248C299.136 67.4248 298.436 66.1219 297.669 64.5731L293.691 67.3068C294.844 70.0749 297.11 72.371 301.021 72.371C305.352 72.371 308.318 69.7577 308.318 64.0175V45.0884H303.433V63.9438C303.433 66.7143 302.419 67.4248 300.813 67.4248H300.815Z" fill="#777777"/>
<rect x="123.768" y="119" width="105.119" height="93.0005" fill="#E5E5E5"/>
<rect x="379.427" y="119" width="106.923" height="93.0005" fill="#E5E5E5"/>
<g clip-path="url(#clip0_284_123)">
<path d="M432.324 137C419.882 137 420.658 142.533 420.658 142.533L420.673 148.267H432.543V149.988H415.962C415.962 149.988 408 149.06 408 161.935C408 174.81 414.948 174.352 414.948 174.352H419.092V168.379C419.092 168.379 418.87 161.254 425.932 161.254H437.704C437.704 161.254 444.319 161.362 444.319 154.696V143.671C444.319 143.671 445.322 137 432.322 137H432.324ZM425.779 140.854C426.959 140.854 427.914 141.833 427.914 143.046C427.914 144.256 426.959 145.235 425.779 145.235C424.597 145.235 423.643 144.256 423.643 143.046C423.643 141.833 424.597 140.854 425.779 140.854Z" fill="#777777"/>
<path d="M432.678 187C445.116 187 444.34 181.467 444.34 181.467L444.326 175.733H432.455V174.013H449.04C449.04 174.013 457.002 174.94 457.002 162.065C457.002 149.19 450.052 149.648 450.052 149.648H445.908V155.621C445.908 155.621 446.13 162.746 439.068 162.746H427.298C427.298 162.746 420.683 162.638 420.683 169.304V180.329C420.683 180.329 419.679 187 432.678 187ZM439.223 183.146C438.041 183.146 437.088 182.167 437.088 180.954C437.088 179.744 438.041 178.765 439.223 178.765C440.403 178.765 441.359 179.744 441.359 180.954C441.359 182.167 440.403 183.146 439.223 183.146Z" fill="#777777"/>
</g>
<rect x="0.5" y="119.5" width="101.863" height="92.0005" fill="white" stroke="#E5E5E5"/>
<path d="M67.0065 141.667H57.75L51 153.1L45.2153 141.667H24L51 190.667L78 141.667H67.0065ZM30.75 145.75H37.3065L51 171.067L64.6935 145.75H71.25L51 182.5L30.75 145.75Z" fill="#777777"/>
<rect x="123.768" y="0.54834" width="105.119" height="94.6813" fill="white"/>
<path d="M175.5 51.4332C178.909 51.4332 181.673 48.7693 181.673 45.4832C181.673 42.1971 178.909 39.5332 175.5 39.5332C172.09 39.5332 169.327 42.1971 169.327 45.4832C169.327 48.7693 172.09 51.4332 175.5 51.4332Z" fill="#777777"/>
<path d="M158.215 57.3131L156.849 56.9765C146.703 54.5065 140.882 50.3065 140.882 45.4698C140.882 40.6298 146.706 36.4331 156.849 33.9631L158.215 33.6298L158.599 34.9331C159.625 38.3455 160.939 41.671 162.528 44.8765L162.822 45.4698L162.528 46.0631C160.937 49.2731 159.62 52.5998 158.599 56.0131L158.215 57.3131ZM156.22 36.9965C148.511 39.0898 143.777 42.2831 143.777 45.4698C143.777 48.6498 148.508 51.8465 156.22 53.9365C157.164 51.0431 158.305 48.2131 159.626 45.4698C158.296 42.7219 157.158 39.8911 156.22 36.9965ZM192.782 57.3131L192.401 56.0065C191.373 52.5935 190.058 49.2669 188.469 46.0598L188.175 45.4698L188.469 44.8731C190.06 41.6698 191.371 38.3398 192.401 34.9265L192.782 33.6265L194.148 33.9598C204.298 36.4298 210.115 40.6265 210.115 45.4698C210.115 50.3098 204.294 54.5065 194.148 56.9765L192.782 57.3131ZM191.364 45.4698C192.747 48.3565 193.899 51.1965 194.777 53.9365C202.489 51.8465 207.224 48.6498 207.224 45.4698C207.224 42.2831 202.493 39.0931 194.777 36.9965C193.834 39.8902 192.694 42.7208 191.364 45.4698Z" fill="#777777"/>
<path d="M156.199 36.9835L155.819 35.6835C152.962 25.9902 153.827 19.0468 158.195 16.6268C162.466 14.2435 169.337 17.0602 176.534 24.1768L177.516 25.1502L176.534 26.1202C173.978 28.6824 171.642 31.4404 169.548 34.3668L169.158 34.9068L168.48 34.9602C164.799 35.2388 161.147 35.8063 157.562 36.6568L156.199 36.9835ZM161.67 18.5535C160.896 18.5535 160.211 18.7168 159.633 19.0368C156.77 20.6268 156.265 26.1635 158.236 33.6368C161.318 32.9802 164.427 32.5102 167.56 32.2468C169.374 29.767 171.353 27.4032 173.484 25.1702C168.978 20.9468 164.724 18.5535 161.67 18.5535ZM189.327 75.1668C185.218 75.1668 179.941 72.1802 174.463 66.7602L173.484 65.7902L174.463 64.8235C177.019 62.2571 179.357 59.4959 181.452 56.5668L181.839 56.0335L182.51 55.9702C186.193 55.6964 189.845 55.1312 193.432 54.2802L194.798 53.9468L195.182 55.2502C198.024 64.9368 197.163 71.8902 192.802 74.3102C191.743 74.8887 190.544 75.1844 189.327 75.1668ZM177.516 65.7668C182.019 69.9902 186.276 72.3868 189.327 72.3868C190.105 72.3868 190.789 72.2202 191.364 71.9035C194.231 70.3102 194.739 64.7635 192.761 57.2902C189.683 57.9502 186.57 58.4235 183.43 58.6868C181.624 61.1706 179.648 63.5358 177.516 65.7668Z" fill="#777777"/>
<path d="M194.798 36.9832L193.431 36.6532C189.845 35.7999 186.193 35.2325 182.51 34.9565L181.839 34.8998L181.452 34.3598C179.359 31.4318 177.022 28.6737 174.463 26.1132L173.484 25.1432L174.463 24.1765C181.656 17.0632 188.524 14.2465 192.802 16.6265C197.166 19.0498 198.035 25.9932 195.181 35.6832L194.798 36.9832ZM183.43 32.2465C186.729 32.5298 189.856 33.0065 192.761 33.6365C194.735 26.1632 194.23 20.6265 191.363 19.0332C188.514 17.4432 183.15 19.8765 177.516 25.1698C179.647 27.4032 181.625 29.7632 183.43 32.2465ZM161.67 75.1665C160.453 75.1832 159.254 74.8876 158.195 74.3098C153.827 71.8898 152.962 64.9398 155.815 55.2498L156.189 53.9465L157.555 54.2798C160.889 55.0898 164.561 55.6598 168.476 55.9698L169.147 56.0332L169.538 56.5665C171.627 59.4932 173.965 62.2565 176.524 64.8232L177.506 65.7898L176.524 66.7598C171.049 72.1832 165.772 75.1665 161.67 75.1665ZM158.236 57.2932C156.265 64.7665 156.77 70.3132 159.633 71.9065C162.486 73.4732 167.833 71.0565 173.484 65.7665C171.353 63.5328 169.374 61.169 167.56 58.6898C164.423 58.4225 161.309 57.9559 158.236 57.2932Z" fill="#777777"/>
<path d="M175.5 59.0432C173.124 59.0432 170.686 58.9466 168.238 58.7499L167.56 58.6932L167.169 58.1532C165.788 56.2395 164.489 54.2724 163.275 52.2566C162.07 50.2353 160.949 48.1681 159.917 46.0599L159.626 45.4699L159.917 44.8732C160.951 42.7665 162.068 40.6999 163.275 38.6799C164.475 36.6932 165.786 34.7065 167.169 32.7799L167.56 32.2465L168.238 32.1865C173.069 31.7965 177.925 31.7965 182.756 32.1865L183.427 32.2499L183.818 32.7832C186.583 36.6124 189.013 40.6576 191.08 44.8765L191.367 45.4732L191.08 46.0632C189.018 50.2851 186.589 54.3307 183.818 58.1566L183.427 58.6966L182.756 58.7532C180.314 58.9432 177.873 59.0432 175.5 59.0432ZM169.158 56.0299C173.429 56.3399 177.572 56.3399 181.839 56.0299C184.222 52.6673 186.34 49.1374 188.175 45.4699C186.346 41.7991 184.228 38.2687 181.839 34.9099C177.618 34.5965 173.379 34.5965 169.158 34.9099C166.767 38.2675 164.649 41.798 162.822 45.4699C164.661 49.1354 166.779 52.665 169.158 56.0299Z" fill="#777777"/>
<path d="M336.286 160.005C335.329 160.001 334.374 160.067 333.432 160.202C333.186 158.969 332.625 157.793 331.788 156.753C330.95 155.713 329.854 154.834 328.574 154.173L327.623 153.722L326.977 154.483C326.167 155.507 325.58 156.642 325.245 157.836C324.909 158.887 324.836 159.983 325.029 161.059C325.221 162.134 325.676 163.166 326.366 164.091C324.81 164.666 323.141 165 321.44 165.077H276.698C276.136 165.077 275.597 165.26 275.197 165.587C274.796 165.913 274.567 166.358 274.558 166.824C274.516 170.08 275.184 173.315 276.528 176.375C277.736 179.381 280.129 181.962 283.323 183.7C287.965 185.655 293.139 186.577 298.339 186.377C301.092 186.417 303.844 186.247 306.56 185.87C310.367 185.305 314.031 184.209 317.397 182.63C320.176 181.232 322.666 179.472 324.769 177.417C327.906 174.357 330.357 170.855 332.005 167.077H332.651C334.04 167.12 335.425 166.932 336.726 166.526C338.027 166.12 339.217 165.502 340.227 164.71C341.108 164.029 341.793 163.191 342.231 162.259L342.503 161.639L341.823 161.189C340.178 160.313 338.237 159.898 336.286 160.005Z" fill="#777777"/>
<path d="M286.822 158.681H280.843C280.704 158.681 280.571 158.725 280.47 158.803C280.369 158.882 280.308 158.989 280.299 159.104V163.556C280.308 163.67 280.369 163.778 280.47 163.856C280.571 163.935 280.704 163.978 280.843 163.978H286.822C286.96 163.978 287.094 163.935 287.195 163.856C287.296 163.778 287.357 163.67 287.366 163.556V159.104C287.357 158.989 287.296 158.882 287.195 158.803C287.094 158.725 286.96 158.681 286.822 158.681ZM295.111 158.681H289.098C288.96 158.681 288.826 158.725 288.725 158.803C288.624 158.882 288.563 158.989 288.555 159.104V163.556C288.563 163.67 288.624 163.778 288.725 163.856C288.826 163.935 288.96 163.978 289.098 163.978H295.111C295.246 163.978 295.376 163.934 295.472 163.854C295.567 163.775 295.621 163.668 295.621 163.556V159.104C295.621 158.992 295.567 158.884 295.472 158.805C295.376 158.726 295.246 158.681 295.111 158.681ZM303.502 158.681H297.489C297.354 158.681 297.225 158.726 297.129 158.805C297.033 158.884 296.98 158.992 296.98 159.104V163.556C296.98 163.668 297.033 163.775 297.129 163.854C297.225 163.934 297.354 163.978 297.489 163.978H303.502C303.638 163.978 303.767 163.934 303.863 163.854C303.958 163.775 304.012 163.668 304.012 163.556V159.104C304.012 158.992 303.958 158.884 303.863 158.805C303.767 158.726 303.638 158.681 303.502 158.681ZM305.779 158.681C305.701 158.664 305.62 158.661 305.542 158.674C305.463 158.687 305.389 158.716 305.327 158.757C305.264 158.798 305.213 158.851 305.18 158.911C305.146 158.971 305.13 159.038 305.133 159.104V163.556C305.133 163.611 305.146 163.666 305.172 163.717C305.198 163.769 305.235 163.815 305.282 163.854C305.33 163.894 305.386 163.925 305.448 163.946C305.51 163.967 305.576 163.978 305.643 163.978H311.928C312.063 163.978 312.192 163.934 312.288 163.854C312.383 163.775 312.437 163.668 312.437 163.556V159.104C312.437 158.992 312.383 158.884 312.288 158.805C312.192 158.726 312.063 158.681 311.928 158.681H305.779ZM289.098 152.314H294.941C295.086 152.314 295.224 152.361 295.326 152.446C295.428 152.53 295.485 152.645 295.485 152.765V157.16C295.5 157.226 295.497 157.294 295.477 157.358C295.457 157.423 295.419 157.484 295.367 157.535C295.315 157.586 295.25 157.627 295.176 157.655C295.102 157.683 295.022 157.696 294.941 157.695H289.098C288.963 157.695 288.833 157.651 288.738 157.571C288.642 157.492 288.589 157.385 288.589 157.273V152.736C288.589 152.681 288.602 152.626 288.627 152.575C288.653 152.523 288.691 152.477 288.738 152.438C288.785 152.398 288.841 152.367 288.903 152.346C288.965 152.325 289.031 152.314 289.098 152.314ZM297.489 152.314H303.502C303.569 152.314 303.636 152.325 303.697 152.346C303.759 152.367 303.815 152.398 303.863 152.438C303.91 152.477 303.948 152.523 303.973 152.575C303.999 152.626 304.012 152.681 304.012 152.736V157.16C304.012 157.279 303.955 157.394 303.853 157.479C303.751 157.563 303.613 157.611 303.468 157.611H297.489C297.354 157.611 297.225 157.566 297.129 157.487C297.033 157.408 296.98 157.3 296.98 157.188V152.736C296.98 152.681 296.993 152.626 297.019 152.575C297.044 152.523 297.082 152.477 297.129 152.438C297.176 152.398 297.232 152.367 297.294 152.346C297.356 152.325 297.422 152.314 297.489 152.314ZM305.779 152.314H311.928C311.994 152.314 312.061 152.325 312.123 152.346C312.184 152.367 312.241 152.398 312.288 152.438C312.335 152.477 312.373 152.523 312.398 152.575C312.424 152.626 312.437 152.681 312.437 152.736V157.16C312.459 157.224 312.461 157.291 312.446 157.356C312.43 157.421 312.396 157.483 312.346 157.535C312.296 157.587 312.233 157.629 312.16 157.656C312.087 157.684 312.008 157.698 311.928 157.695H305.779C305.69 157.711 305.598 157.708 305.511 157.687C305.424 157.665 305.344 157.626 305.28 157.573C305.216 157.52 305.169 157.454 305.143 157.382C305.118 157.31 305.114 157.233 305.133 157.16V152.736C305.13 152.67 305.146 152.604 305.18 152.544C305.213 152.483 305.264 152.43 305.327 152.389C305.389 152.348 305.463 152.32 305.542 152.307C305.62 152.294 305.701 152.296 305.779 152.314Z" fill="#777777"/>
<path d="M311.792 145.918H305.779C305.497 145.918 305.269 146.107 305.269 146.341V150.792C305.269 151.026 305.497 151.215 305.779 151.215H311.792C312.073 151.215 312.301 151.026 312.301 150.792V146.341C312.301 146.107 312.073 145.918 311.792 145.918Z" fill="#777777"/>
<path d="M314.136 158.681C314.001 158.681 313.871 158.726 313.776 158.805C313.68 158.884 313.626 158.992 313.626 159.104V163.555C313.626 163.668 313.68 163.775 313.776 163.854C313.871 163.934 314.001 163.978 314.136 163.978H320.149C320.216 163.978 320.282 163.967 320.344 163.946C320.406 163.925 320.462 163.894 320.509 163.854C320.557 163.815 320.594 163.768 320.62 163.717C320.646 163.666 320.659 163.611 320.659 163.555V159.104C320.659 159.048 320.646 158.993 320.62 158.942C320.594 158.891 320.557 158.844 320.509 158.805C320.462 158.766 320.406 158.735 320.344 158.713C320.282 158.692 320.216 158.681 320.149 158.681H314.136Z" fill="#777777"/>
<path d="M195.408 164.079C194.701 164.073 193.997 164.007 193.304 163.881C192.637 163.752 191.986 163.561 191.359 163.313L190.906 163.214H190.587C190.32 163.214 190.187 163.387 190.187 163.733V164.548C190.149 164.703 190.149 164.863 190.187 165.018C190.321 165.221 190.515 165.384 190.746 165.487C191.387 165.784 192.068 166 192.771 166.129C193.643 166.323 194.537 166.422 195.435 166.426C196.337 166.451 197.238 166.334 198.098 166.08C198.809 165.907 199.472 165.595 200.043 165.166C200.582 164.779 201.027 164.291 201.348 163.733C201.653 163.131 201.808 162.472 201.801 161.806C201.811 160.981 201.53 160.174 201.002 159.509C200.291 158.761 199.368 158.213 198.338 157.928L195.807 157.187C195.1 157.018 194.439 156.715 193.863 156.298C193.694 156.148 193.56 155.968 193.468 155.768C193.377 155.569 193.33 155.354 193.33 155.137C193.311 154.844 193.378 154.551 193.523 154.291C193.669 154.03 193.887 153.81 194.156 153.655C194.893 153.323 195.709 153.17 196.527 153.21C197.692 153.184 198.849 153.404 199.91 153.853C200.126 153.955 200.361 154.022 200.602 154.05C200.869 154.05 201.002 153.853 201.002 153.507V152.617C201.01 152.425 200.954 152.236 200.842 152.074C200.7 151.906 200.517 151.771 200.309 151.679C200.072 151.558 199.822 151.458 199.563 151.382C199.232 151.274 198.894 151.183 198.551 151.111L197.379 150.864C196.945 150.835 196.508 150.835 196.074 150.864C195.326 150.852 194.581 150.943 193.863 151.135C193.19 151.317 192.559 151.61 191.998 152C191.478 152.352 191.05 152.808 190.746 153.334C190.42 153.895 190.254 154.524 190.267 155.162C190.251 156.053 190.561 156.924 191.146 157.632C191.877 158.449 192.864 159.036 193.969 159.312L196.633 160.053C197.292 160.195 197.905 160.483 198.418 160.892C198.737 161.206 198.909 161.623 198.897 162.053C198.903 162.366 198.82 162.674 198.656 162.947C198.493 163.221 198.254 163.449 197.965 163.61C197.174 163.978 196.29 164.141 195.408 164.079ZM179.932 152.099C179.891 151.857 179.77 151.632 179.585 151.457C179.386 151.32 179.139 151.259 178.893 151.284H177.428C177.183 151.271 176.94 151.332 176.735 151.457C176.541 151.626 176.418 151.853 176.389 152.099L173.725 162.967L170.688 152.099C170.64 151.854 170.509 151.629 170.315 151.457C170.315 151.457 169.969 151.284 169.623 151.284H167.891C167.598 151.284 167.465 151.432 167.465 151.704C167.491 151.931 167.545 152.154 167.625 152.37L171.781 165.067C171.835 165.293 171.944 165.504 172.1 165.685C172.31 165.798 172.551 165.849 172.793 165.833H174.311C174.561 165.848 174.811 165.797 175.03 165.685C175.198 165.492 175.308 165.262 175.35 165.018L178.014 154.445L180.677 165.042C180.7 165.284 180.813 165.512 180.997 165.685C181.207 165.82 181.462 165.882 181.716 165.857H183.235C183.471 165.868 183.705 165.808 183.901 165.685C184.101 165.517 184.233 165.29 184.273 165.042L188.562 152.346C188.578 152.214 188.578 152.082 188.562 151.951C188.572 151.86 188.572 151.769 188.562 151.679C188.571 151.622 188.565 151.564 188.546 151.509C188.526 151.454 188.493 151.404 188.449 151.364C188.405 151.323 188.352 151.292 188.293 151.274C188.234 151.256 188.171 151.251 188.109 151.259H186.458C186.213 151.25 185.972 151.31 185.765 151.432C185.601 151.62 185.483 151.839 185.419 152.074L182.755 163.214L179.932 152.099ZM160.833 157.36C160.205 157.284 159.574 157.243 158.941 157.237C157.374 157.16 155.83 157.617 154.599 158.521C154.075 158.937 153.66 159.458 153.383 160.044C153.106 160.63 152.976 161.266 153.001 161.905C152.97 162.487 153.07 163.069 153.295 163.613C153.52 164.158 153.864 164.653 154.306 165.067C154.782 165.474 155.34 165.788 155.949 165.992C156.557 166.196 157.203 166.284 157.849 166.253C158.866 166.28 159.876 166.089 160.8 165.695C161.724 165.3 162.537 164.714 163.177 163.98C163.332 164.311 163.51 164.633 163.709 164.943C163.899 165.215 164.113 165.471 164.349 165.709C164.413 165.77 164.49 165.818 164.574 165.851C164.659 165.883 164.75 165.9 164.842 165.9C164.933 165.9 165.024 165.883 165.109 165.851C165.193 165.818 165.27 165.77 165.334 165.709L166.453 165.018C166.546 164.964 166.626 164.892 166.686 164.806C166.746 164.721 166.784 164.624 166.799 164.524C166.842 164.395 166.842 164.257 166.799 164.128C166.583 163.754 166.397 163.366 166.24 162.967C166.097 162.485 166.034 161.985 166.054 161.485V156.273C166.117 155.541 166.02 154.805 165.768 154.109C165.517 153.412 165.115 152.771 164.588 152.222C163.911 151.694 163.125 151.301 162.277 151.068C161.429 150.834 160.538 150.765 159.661 150.864C158.761 150.863 157.866 150.971 156.997 151.185C156.223 151.352 155.472 151.6 154.759 151.926C154.571 152.003 154.407 152.122 154.28 152.272C154.215 152.456 154.215 152.655 154.28 152.84V153.655C154.28 154.001 154.28 154.149 154.653 154.149C154.749 154.168 154.849 154.168 154.946 154.149L155.558 153.951C156.099 153.705 156.661 153.499 157.237 153.334C157.864 153.188 158.508 153.113 159.154 153.111C160.184 153.011 161.216 153.286 162.031 153.877C162.666 154.616 162.962 155.556 162.857 156.496V157.706L160.833 157.36ZM162.91 159.583V160.25C162.912 160.733 162.85 161.214 162.724 161.683C162.611 162.076 162.402 162.44 162.111 162.745C161.667 163.229 161.086 163.589 160.433 163.783C159.851 163.972 159.239 164.073 158.622 164.079C158.284 164.102 157.944 164.062 157.624 163.96C157.303 163.858 157.008 163.697 156.757 163.486C156.524 163.252 156.346 162.974 156.236 162.672C156.126 162.37 156.086 162.05 156.118 161.732C156.096 161.377 156.164 161.023 156.316 160.697C156.469 160.371 156.702 160.082 156.997 159.855C157.773 159.35 158.716 159.114 159.661 159.188H161.312C161.852 159.293 162.386 159.425 162.91 159.583ZM198.098 173.095C191.73 175.579 184.896 176.872 177.987 176.899C168.74 176.901 159.652 174.67 151.616 170.427C150.977 170.057 150.471 170.674 151.03 171.144C158.263 177.207 167.678 180.546 177.428 180.505C185.117 180.523 192.634 178.397 199.004 174.404C199.91 173.638 199.084 172.626 198.098 173.095Z" fill="#777777"/>
<path d="M194.422 170.773C193.916 171.119 193.996 171.588 194.556 171.514C196.447 171.292 200.629 170.847 201.375 171.737C202.121 172.626 200.549 176.257 199.83 177.887C199.617 178.381 200.096 178.579 200.576 178.208C201.789 177.173 202.718 175.885 203.288 174.45C203.858 173.015 204.051 171.476 203.852 169.958C202.321 169.399 200.67 169.182 199.032 169.323C197.394 169.465 195.815 169.962 194.422 170.773Z" fill="#777777"/>
<rect x="766.454" y="119" width="111.896" height="93.0006" fill="white"/>
<rect x="899.866" y="0.54834" width="110.039" height="94.6813" fill="white"/>
<rect x="509.382" y="0.54834" width="105.861" height="94.6813" fill="#E5E5E5"/>
<path d="M568.5 20C546.911 20 530 30.7128 530 44.39C530 58.0672 546.911 68.78 568.5 68.78C590.089 68.78 607 58.0672 607 44.39C607 30.7128 590.089 20 568.5 20ZM564.502 27.5046H568.705L567.371 35.0092H571.124C573.505 35.0092 575.103 35.3995 576.014 36.3713C576.903 37.3319 577.172 38.9079 576.816 41.0542L575.148 50.0185H570.874L572.411 41.7296C572.597 40.5927 572.523 39.8009 572.196 39.3844C571.872 38.9679 571.157 38.7616 570.085 38.7616H566.719L564.688 50.0185H560.479L564.502 27.5046ZM546.042 35.0092H554.595C558.673 35.0092 561.143 38.2062 560.178 42.9754C559.055 48.5176 556.052 50.0185 550.52 50.0185H547.877L547.039 55.6469H542.788L546.042 35.0092ZM579.729 35.0092H588.283C592.36 35.0092 594.831 38.2062 593.865 42.9754C592.742 48.5176 589.736 50.0185 584.208 50.0185H581.564L580.727 55.6469H576.476L579.729 35.0092ZM549.683 38.7616L548.474 46.2662H551.217C553.591 46.2662 555.798 45.951 556.167 41.8084C556.305 40.2062 555.734 38.7616 552.991 38.7616H549.683ZM583.371 38.7616L582.161 46.2662H584.904C587.278 46.2662 589.486 45.951 589.855 41.8084C589.993 40.2062 589.425 38.7616 586.678 38.7616H583.371Z" fill="#777777"/>
<rect x="766.454" y="0.54834" width="111.896" height="94.6813" fill="#E5E5E5"/>
<rect x="636.757" y="119" width="108.182" height="93.0006" fill="#E5E5E5"/>
<path fill-rule="evenodd" clip-rule="evenodd" d="M693.5 137C678.306 137 666 148.859 666 163.5C666 175.226 673.872 185.131 684.803 188.642C686.178 188.874 686.694 188.079 686.694 187.383C686.694 186.754 686.659 184.667 686.659 182.447C679.75 183.673 677.963 180.824 677.413 179.334C677.103 178.572 675.763 176.22 674.594 175.591C673.631 175.094 672.256 173.868 674.559 173.835C676.725 173.802 678.272 175.756 678.788 176.551C681.263 180.559 685.216 179.433 686.797 178.737C687.038 177.015 687.759 175.856 688.55 175.193C682.431 174.531 676.038 172.245 676.038 162.109C676.038 159.227 677.103 156.842 678.856 154.987C678.581 154.324 677.619 151.608 679.131 147.964C679.131 147.964 681.434 147.269 686.694 150.681C688.894 150.084 691.231 149.786 693.569 149.786C695.906 149.786 698.244 150.084 700.444 150.681C705.703 147.236 708.006 147.964 708.006 147.964C709.519 151.608 708.556 154.324 708.281 154.987C710.034 156.842 711.1 159.194 711.1 162.109C711.1 172.278 704.672 174.531 698.553 175.193C699.55 176.021 700.409 177.611 700.409 180.096C700.409 183.64 700.375 186.489 700.375 187.383C700.375 188.079 700.891 188.907 702.266 188.642C707.725 186.866 712.469 183.485 715.829 178.975C719.19 174.464 720.998 169.052 721 163.5C721 148.859 708.694 137 693.5 137Z" fill="#777777"/>
<rect x="899.866" y="119" width="110.039" height="93.0006" fill="#E5E5E5"/>
<path d="M957.379 134.355L936.962 156L943.271 162.695L948.804 156.845L970.017 134.333L957.379 134.355ZM959.053 165.988L970.058 154.332H957.951C957.726 154.332 957.42 154.332 957.257 154.483L952.704 159.315L946.395 165.967L952.704 172.683L957.093 177.342C957.236 177.493 957.379 177.71 957.624 177.667H970.017L959.053 165.988Z" fill="#777777"/>
<rect x="509.882" y="119.5" width="104.861" height="92.0006" fill="white" stroke="#E5E5E5"/>
<rect x="636.757" y="0.54834" width="108.182" height="94.6813" fill="white"/>
<path fill-rule="evenodd" clip-rule="evenodd" d="M673.255 24.9165C669.887 24.9165 667.397 27.864 667.51 31.0574C667.615 34.1303 667.478 38.1055 666.477 41.348C665.469 44.5979 663.773 46.658 661 46.9235V49.9104C663.773 50.1734 665.472 52.2335 666.475 55.4859C667.478 58.7284 667.615 62.7035 667.507 65.774C667.397 68.9698 669.887 71.9174 673.255 71.9174H707.75C711.118 71.9174 713.608 68.9698 713.495 65.774C713.39 62.7035 713.527 58.7284 714.528 55.4859C715.533 52.2335 717.227 50.1759 720 49.9104V46.9235C717.227 46.658 715.533 44.5979 714.528 41.348C713.527 38.103 713.39 34.1279 713.495 31.0574C713.608 27.8616 711.116 24.9165 707.75 24.9165H673.255ZM700.997 53.8486C700.997 58.249 697.715 60.9163 692.27 60.9163H683C682.734 60.9163 682.48 60.8109 682.292 60.6233C682.104 60.4356 681.999 60.1812 681.999 59.9158V36.9156C682 36.6507 682.105 36.3968 682.293 36.2097C682.481 36.0226 682.735 35.9175 683 35.9175H692.218C696.759 35.9175 699.741 38.3759 699.741 42.1543C699.741 44.8044 697.735 47.1767 695.181 47.5946V47.7323C698.659 48.1133 701 50.5225 701 53.8486H700.997ZM691.262 39.0863H685.977V46.5548H690.429C693.87 46.5548 695.768 45.1683 695.768 42.6903C695.768 40.3696 694.136 39.0863 691.262 39.0863ZM685.977 49.517V57.7451H691.459C695.041 57.7451 696.941 56.307 696.941 53.6053C696.941 50.9011 694.989 49.517 691.228 49.517H685.977Z" fill="#777777"/>
<path d="M579.962 161.439C577.935 160.95 576.146 160.072 574.8 158.905C573.317 157.604 571.428 156.558 569.278 155.847C567.128 155.135 564.774 154.777 562.396 154.801C559.198 154.642 556.031 155.333 553.527 156.734C551.023 158.136 549.366 160.147 548.885 162.365C549.832 161.256 551.259 160.385 552.958 159.879C554.658 159.372 556.543 159.256 558.343 159.548C560.366 160.05 562.152 160.934 563.504 162.101C564.996 163.391 566.889 164.426 569.038 165.128C571.187 165.829 573.537 166.178 575.908 166.148C579.107 166.306 582.273 165.616 584.777 164.214C587.281 162.812 588.939 160.802 589.42 158.583C588.49 159.706 587.068 160.59 585.365 161.104C583.662 161.618 581.767 161.736 579.962 161.439ZM544.831 170.857C546.858 171.345 548.647 172.224 549.993 173.391C551.476 174.692 553.365 175.738 555.515 176.449C557.665 177.16 560.019 177.518 562.396 177.495C565.595 177.654 568.762 176.963 571.266 175.561C573.77 174.159 575.427 172.149 575.908 169.93C574.961 171.04 573.534 171.911 571.835 172.417C570.135 172.923 568.25 173.039 566.45 172.748C564.427 172.245 562.641 171.362 561.289 170.195C559.793 168.908 557.9 167.875 555.751 167.174C553.603 166.473 551.255 166.122 548.885 166.148C545.686 165.989 542.52 166.68 540.016 168.082C537.512 169.483 535.854 171.494 535.373 173.713C536.303 172.59 537.725 171.706 539.428 171.192C541.131 170.677 543.026 170.56 544.831 170.857Z" fill="#777777"/>
<g clip-path="url(#clip1_284_123)">
<path fill-rule="evenodd" clip-rule="evenodd" d="M814.818 142.527C808.772 142.527 803.909 146.806 803.909 152.048C803.909 155.235 805.708 158.065 808.473 159.793C807.048 160.693 805.893 161.863 805.1 163.208C804.308 164.553 803.9 166.036 803.909 167.538C803.909 170.726 805.708 173.555 808.473 175.282C807.048 176.183 805.893 177.353 805.1 178.697C804.308 180.042 803.9 181.525 803.909 183.027C803.909 188.269 808.772 192.548 814.818 192.548C820.861 192.548 825.726 188.269 825.726 183.027V174.978C827.636 176.322 830.045 177.059 832.533 177.06C838.578 177.058 843.441 172.779 843.441 167.538C843.441 164.349 841.645 161.52 838.877 159.793C840.302 158.892 841.457 157.723 842.25 156.378C843.042 155.033 843.45 153.55 843.441 152.048C843.441 146.806 838.578 142.527 832.533 142.527H814.818ZM808.008 152.048C808.008 148.732 811.077 146.077 814.818 146.077H821.624V158.019H814.818C811.077 158.019 808.008 155.362 808.008 152.048ZM832.533 158.017H825.726V146.075H832.533C836.276 146.075 839.342 148.732 839.342 152.048C839.342 155.362 836.276 158.017 832.533 158.017ZM808.011 167.538C808.011 164.224 811.079 161.566 814.82 161.566H821.627V173.509H814.818C811.074 173.509 808.008 170.851 808.008 167.538H808.011ZM825.726 167.538C825.726 164.224 828.794 161.566 832.535 161.566C836.278 161.566 839.344 164.222 839.344 167.538C839.344 170.851 836.278 173.509 832.535 173.509C828.794 173.509 825.728 170.853 825.728 167.538H825.726ZM808.011 183.027C808.011 179.713 811.079 177.058 814.82 177.058H821.627V183.027C821.627 186.343 818.563 188.998 814.82 188.998C811.079 188.998 808.011 186.343 808.011 183.027Z" fill="#777777"/>
</g>
<path d="M972.931 25.4077H936.623C933.89 25.4077 931.672 27.6253 931.672 30.3576V66.6571C931.672 69.3895 933.89 71.6071 936.623 71.6071H972.931C975.664 71.6071 977.882 69.3895 977.882 66.6571V30.3576C977.882 27.6253 975.664 25.4077 972.931 25.4077ZM944.772 61.7584C944.499 62.2314 944.049 62.5764 943.521 62.7175C942.993 62.8586 942.43 62.7842 941.957 62.5107C941.484 62.2372 941.139 61.787 940.998 61.2591C940.856 60.7312 940.931 60.1689 941.204 59.6959L942.68 57.1483C944.34 56.6434 945.702 57.0345 946.764 58.3231L944.772 61.7584ZM959.099 56.2012H940.336C939.201 56.2012 938.273 55.2723 938.273 54.1388C938.273 53.0052 939.202 52.0763 940.336 52.0763H945.598L952.343 40.4027L950.229 36.753C949.956 36.2796 949.883 35.7177 950.024 35.1903C950.165 34.6628 950.509 34.2126 950.981 33.9381C951.455 33.6661 952.017 33.5925 952.544 33.7335C953.072 33.8745 953.522 34.2185 953.797 34.6905L954.714 36.2778L955.632 34.6905C955.767 34.4563 955.948 34.251 956.162 34.0864C956.377 33.9218 956.622 33.8012 956.884 33.7313C957.145 33.6614 957.418 33.6437 957.686 33.6792C957.954 33.7147 958.213 33.8027 958.447 33.9381C958.682 34.0735 958.887 34.2538 959.052 34.4685C959.216 34.6833 959.337 34.9283 959.407 35.1897C959.477 35.4511 959.494 35.7237 959.459 35.9919C959.423 36.2601 959.335 36.5187 959.2 36.753L950.351 52.0779H956.756C958.838 52.0779 960.005 54.5216 959.098 56.2029L959.099 56.2012ZM969.218 56.2012H966.225L968.247 59.6975C968.815 60.6875 968.473 61.9464 967.495 62.5124C966.504 63.08 965.245 62.7384 964.679 61.76C961.286 55.8927 958.748 51.479 957.046 48.5503C955.323 45.5589 956.551 42.5691 957.779 41.5593C959.131 43.9007 961.152 47.4069 963.854 52.0779H969.218C969.765 52.0779 970.289 52.2952 970.676 52.682C971.063 53.0688 971.281 53.5934 971.281 54.1404C971.281 54.6874 971.063 55.212 970.676 55.5988C970.289 55.9856 969.765 56.2029 969.218 56.2029V56.2012Z" fill="#777777"/>
<path d="M812.006 59.4004C802.104 61.8234 817.997 66.8386 830.59 62.2179C829.368 61.8 828.189 61.291 827.065 60.6964C822.693 61.5717 818.177 61.7435 813.736 61.2036C809.538 60.781 812.006 59.4004 812.006 59.4004Z" fill="#777777"/>
<path d="M829.084 54.6669C823.444 55.7453 817.641 55.9928 811.909 55.3995C807.712 55.005 810.467 53.23 810.467 53.23C799.573 56.3856 816.523 59.992 831.743 56.0475C830.754 55.7616 829.846 55.2906 829.084 54.6669Z" fill="#777777"/>
<path d="M834.915 27.2529C834.915 27.2529 812.902 32.0709 823.412 42.721C823.822 43.1533 824.128 43.6545 824.31 44.194C824.493 44.7335 824.548 45.3001 824.473 45.8591C824.398 46.4181 824.194 46.9578 823.874 47.4452C823.554 47.9327 823.124 48.3576 822.611 48.6941C822.611 48.6941 830.494 45.1159 826.873 40.6361C823.252 36.1562 820.913 34.3812 834.915 27.2529Z" fill="#777777"/>
<path d="M840.074 63.9928C840.074 63.9928 841.869 65.2888 838.056 66.3031C830.782 68.2472 807.84 68.8389 801.464 66.3031C799.157 65.4297 803.45 64.2182 804.668 63.9646C805.39 63.8008 806.134 63.7249 806.879 63.7392C804.315 62.1614 790.377 66.8384 799.797 68.1908C825.591 72.0508 846.707 66.613 840.074 63.9928Z" fill="#777777"/>
<path d="M831.231 50.2435C832.173 49.7195 833.158 49.2581 834.179 48.8629C834.179 48.8629 829.34 49.6237 824.566 49.9899C819.432 50.4256 814.265 50.4728 809.122 50.1308C801.496 49.2574 813.191 46.6934 813.191 46.6934C809.672 46.6695 806.198 47.3945 803.066 48.8066C796.465 51.7086 819.375 52.9765 831.231 50.2435Z" fill="#777777"/>
<path d="M834.146 57.1181C834.076 57.2138 833.99 57.2993 833.89 57.3717C849.911 53.6526 844.08 44.2703 836.389 46.637C835.965 46.7742 835.597 47.0194 835.332 47.3414C835.332 47.3414 835.781 47.2005 836.71 47.0033C840.619 46.2989 846.066 51.5958 834.146 57.1181Z" fill="#777777"/>
<path d="M820.432 46.6932C818.061 41.988 809.987 37.8463 820.432 30.6053C833.538 21.5611 826.841 15.7007 826.841 15.7007C829.532 25.0266 817.228 27.8441 812.934 33.6482C809.955 37.6209 814.44 41.8753 820.432 46.6932Z" fill="#777777"/>
<path d="M834.563 70.135C824.882 71.5924 815.003 71.7254 805.276 70.5295C805.276 70.5295 806.75 71.6001 814.376 72.0227C825.944 72.6708 843.695 71.6846 844.143 66.8667C844.143 66.8667 843.31 68.6699 834.563 70.135Z" fill="#777777"/>
<defs>
<clipPath id="clip0_284_123">
<rect width="49" height="50" fill="white" transform="translate(408 137)"/>
</clipPath>
<clipPath id="clip1_284_123">
<rect width="59.2972" height="50.0203" fill="white" transform="translate(794.026 142.527)"/>
</clipPath>
</defs>
</svg>
